<?xml version="1.0" encoding="UTF-8" standalone="no"?>
<svg
   xmlns:dc="http://purl.org/dc/elements/1.1/"
   xmlns:cc="http://creativecommons.org/ns#"
   xmlns:rdf="http://www.w3.org/1999/02/22-rdf-syntax-ns#"
   xmlns:svg="http://www.w3.org/2000/svg"
   xmlns="http://www.w3.org/2000/svg"
   xmlns:sodipodi="http://sodipodi.sourceforge.net/DTD/sodipodi-0.dtd"
   xmlns:inkscape="http://www.inkscape.org/namespaces/inkscape"
   width="210mm"
   height="297mm"
   viewBox="0 0 210 297"
   version="1.1"
   id="svg8"
   sodipodi:docname="deepupLogoall.svg"
   inkscape:version="1.0.2-2 (e86c870879, 2021-01-15)">
  <defs
     id="defs2" />
  <sodipodi:namedview
     id="base"
     pagecolor="#ffffff"
     bordercolor="#666666"
     borderopacity="1.0"
     inkscape:pageopacity="0.0"
     inkscape:pageshadow="2"
     inkscape:zoom="0.64"
     inkscape:cx="269.84464"
     inkscape:cy="664.01255"
     inkscape:document-units="mm"
     inkscape:current-layer="layer1"
     inkscape:document-rotation="0"
     showgrid="false"
     inkscape:window-width="1920"
     inkscape:window-height="1027"
     inkscape:window-x="1912"
     inkscape:window-y="-8"
     inkscape:window-maximized="1"
     showguides="false" />
  <metadata
     id="metadata5">
    <rdf:RDF>
      <cc:Work
         rdf:about="">
        <dc:format>image/svg+xml</dc:format>
        <dc:type
           rdf:resource="http://purl.org/dc/dcmitype/StillImage" />
      </cc:Work>
    </rdf:RDF>
  </metadata>
  <g
     inkscape:label="Layer 1"
     inkscape:groupmode="layer"
     id="layer1">
    <rect
       style="fill:#2cd99b;fill-opacity:1;fill-rule:evenodd;stroke:#ffffff;stroke-width:0.607342;stroke-linecap:round;stroke-linejoin:round;stroke-miterlimit:4;stroke-dasharray:none;stroke-opacity:1"
       id="rect1802"
       width="262.55414"
       height="81.947723"
       x="-8.3327942"
       y="159.8443"
       ry="12.534927" />
    <path
       style="fill:#000000;fill-opacity:1;fill-rule:nonzero;stroke:#000000;stroke-width:0.30921;stroke-linecap:round;stroke-linejoin:round;stroke-miterlimit:4;stroke-dasharray:none;stroke-opacity:1"
       d="m 34.687269,112.30463 c 0.48283,-0.22104 1.383513,-0.85457 2.001523,-1.40782 1.105951,-0.99008 1.148169,-1.00632 2.679583,-1.03124 3.223382,-0.0524 3.37917,-0.0248 4.440008,0.78721 1.423801,1.08984 2.366491,1.4974 3.476189,1.50288 1.408498,0.007 1.985186,-0.20362 3.192906,-1.16587 1.318364,-1.05041 1.624423,-1.86517 1.515719,-4.03493 -0.06992,-1.39629 -0.163253,-1.69973 -0.746223,-2.42674 -0.894343,-1.11533 -1.771232,-1.59685 -3.173675,-1.74275 -1.807917,-0.18808 -3.200467,0.23896 -3.983979,1.2217 -1.007098,1.26319 -1.791302,1.53738 -4.396991,1.53738 -2.228239,0 -2.249474,-0.005 -2.878046,-0.67135 -2.608125,-2.76508 -6.411586,-2.4088 -8.108289,0.75952 -0.644877,1.20421 -0.657613,3.16315 -0.02836,4.36692 1.197827,2.29159 3.832095,3.30199 6.009664,2.30509 z m -3.249492,-0.97077 c -1.866515,-1.09505 -2.263832,-1.72268 -2.263832,-3.57609 0,-1.45616 0.340692,-2.04697 1.791074,-3.106 0.638871,-0.46648 1.105462,-0.62857 1.809434,-0.62857 1.221304,0 2.053472,0.42515 3.941133,2.0135 0.217629,0.18312 1.210792,0.26745 3.12624,0.26546 2.95642,-0.003 3.814192,-0.22612 4.465123,-1.16115 0.613341,-0.88102 1.918797,-1.55245 3.018424,-1.55245 1.202481,0 1.971357,0.33906 2.789591,1.23019 0.831141,0.90518 1.050457,1.44675 1.050457,2.59388 0,1.25353 -0.802947,2.75836 -1.729486,3.24131 -1.683616,0.87757 -3.770367,0.50466 -5.234089,-0.93537 l -0.818893,-0.80563 h -2.979368 -2.979367 l -0.97746,0.90817 c -1.771036,1.6455 -3.759236,2.24596 -5.008981,1.51275 z m -5.976466,-5.04568 c 2.416361,-1.21372 3.526141,-3.58531 3.093793,-6.611409 -0.184162,-1.288997 -0.153605,-1.522612 0.349215,-2.669955 0.30306,-0.691547 0.665077,-1.327208 0.804478,-1.412589 0.139393,-0.08537 0.650101,-0.74906 1.134911,-1.47485 0.83894,-1.255945 0.94216,-1.333055 2.13919,-1.598137 3.51884,-0.779245 5.461969,-2.946101 5.461969,-6.09085 0,-2.346113 -1.456689,-4.332792 -3.835036,-5.230372 -1.451295,-0.547717 -2.104825,-0.541146 -3.649074,0.03663 -1.644917,0.615463 -2.871608,1.860344 -3.501646,3.553572 -0.456428,1.226646 -0.469344,1.408194 -0.218028,3.063236 l 0.267157,1.759299 -0.663065,1.217817 c -0.520698,0.956358 -1.661394,2.586586 -2.975219,4.252059 -0.03398,0.04304 -0.718403,0.21704 -1.520959,0.386613 -1.849136,0.390702 -3.026053,1.085501 -3.869659,2.284476 -1.358186,1.930325 -1.56121,4.0192 -0.570631,5.87111 0.326099,0.60965 0.683549,1.27895 0.794336,1.48734 0.110785,0.20839 0.789934,0.67842 1.509219,1.04449 1.769788,0.90075 3.625058,0.94723 5.249049,0.13151 z m -4.372465,-0.67005 c -2.149718,-0.58809 -3.288171,-3.73602 -2.327836,-6.436696 0.448749,-1.261974 1.738424,-2.193337 3.85719,-2.785539 1.942616,-0.542969 2.528137,-1.043612 4.118002,-3.521054 1.85474,-2.890198 1.872162,-2.947152 1.556259,-5.087461 l -0.263784,-1.787152 0.734342,-1.474282 c 0.659357,-1.323758 0.8554,-1.534013 1.92015,-2.059273 1.443449,-0.712081 2.429628,-0.751876 3.926768,-0.158459 1.416915,0.561614 1.850625,0.944185 2.321102,2.047379 0.664523,1.558235 0.702,2.334745 0.188742,3.910705 -0.556757,1.709515 -1.135294,2.179168 -3.740283,3.036296 -2.16058,0.710906 -2.884801,1.340809 -4.537273,3.946344 l -1.395573,2.200483 0.05517,2.580599 c 0.05411,2.53304 0.04319,2.60022 -0.594208,3.64565 -1.00814,1.65357 -1.517055,1.93647 -3.603839,2.0033 -0.98103,0.0315 -1.977733,0.004 -2.214896,-0.0609 z m 38.901645,-0.39218 c 2.670407,-1.36399 3.80328,-4.80434 2.497897,-7.5857 -0.294358,-0.627167 -0.755203,-1.348103 -1.024112,-1.602071 -0.611556,-0.577573 -2.70719,-1.572174 -3.318559,-1.575008 -0.838125,-0.0041 -2.333806,-0.663981 -2.88181,-1.271838 -0.297569,-0.330077 -0.805253,-1.004638 -1.128189,-1.499014 -0.322927,-0.494385 -0.880799,-1.201677 -1.239712,-1.571763 -0.62765,-0.647193 -0.652569,-0.746883 -0.652569,-2.610595 0,-3.149029 -0.274589,-4.046502 -1.641511,-5.365118 -2.410046,-2.324888 -5.225289,-2.389629 -7.78739,-0.179084 -1.003211,0.865563 -1.782436,2.692822 -1.782436,4.179762 0,1.63284 0.793388,3.480716 1.817304,4.232667 1.28251,0.94186 1.930613,1.243517 3.188057,1.483892 1.605535,0.306906 2.88177,0.985607 3.169364,1.685458 0.133615,0.32514 0.560684,0.940776 0.949037,1.368062 1.669723,1.83714 1.656261,1.803086 1.657573,4.192838 0.0016,2.947082 0.199074,3.548142 1.644192,5.004772 1.356191,1.36701 1.9338,1.60099 4.021342,1.62897 1.153318,0.0154 1.684251,-0.0937 2.511522,-0.51623 z m -4.189605,-0.66022 c -1.102308,-0.39326 -2.588773,-1.96853 -2.89022,-3.06291 -0.12849,-0.46645 -0.234163,-1.739057 -0.234823,-2.828001 -8.15e-4,-1.779956 -0.05867,-2.06526 -0.569982,-2.825186 -0.934703,-1.38909 -2.324597,-3.127156 -2.500716,-3.127156 -0.0905,0 -0.16454,-0.148127 -0.16454,-0.329182 0,-0.476175 -1.209065,-1.145273 -2.583362,-1.429624 -2.00035,-0.413882 -2.598013,-0.651119 -3.376913,-1.340457 -1.584844,-1.402609 -1.993179,-3.363284 -1.124399,-5.398926 0.358204,-0.839295 0.724173,-1.256955 1.635848,-1.866915 2.069599,-1.384679 4.26028,-1.184526 6.034844,0.551355 1.051052,1.028146 1.354406,2.064505 1.354406,4.627123 0,2.335459 0.04213,2.425851 2.558117,5.487322 1.557294,1.89494 2.14759,2.241724 4.180446,2.455897 1.281034,0.13496 1.40558,0.201992 2.585912,1.391735 l 1.240054,1.24994 v 1.978135 1.97814 l -0.879985,0.96228 c -1.564644,1.71097 -3.320482,2.22006 -5.264687,1.52643 z M 15.267574,97.824008 c 0.689145,-0.324171 1.009051,-0.720426 1.563119,-1.821099 0.856935,-1.70232 0.885507,-2.60496 0.137487,-4.343494 -0.460343,-1.069929 -0.726172,-1.394643 -1.455318,-1.777706 -1.691519,-0.888644 -2.457418,-1.665926 -2.937307,-2.980968 -0.249125,-0.682668 -0.594271,-1.549381 -0.766991,-1.92603 -0.429507,-0.936603 -0.395522,-1.458643 0.164665,-2.529336 0.65364,-1.249325 0.686803,-3.683858 0.06292,-4.618991 -0.235725,-0.353322 -0.527243,-0.833119 -0.647819,-1.066216 -0.362044,-0.6999 -2.3934113,-1.641398 -3.5297697,-1.635969 -1.91824,0.0091 -3.7892417,1.369795 -4.4399661,3.228849 -0.4275868,1.221579 -0.4208103,2.178068 0.023631,3.335958 0.4642326,1.209439 0.9553863,1.738444 2.7009492,2.909081 1.2855318,0.862121 1.4795505,1.087597 1.8072506,2.100234 0.2019117,0.623932 0.4422155,1.232216 0.5340088,1.351742 0.4373412,0.569475 0.4410423,2.202619 0.00815,3.585803 -0.5864738,1.873814 -0.7690183,3.160019 0.068018,4.299329 1.0314691,1.403957 0.8633398,1.333729 2.2348732,2.195029 1.016409,0.638297 1.153857,0.380197 2.838678,0.462129 z m -3.880849,-0.46364 C 10.524007,96.90274 9.5851061,96.007739 9.2114495,95.286795 8.7596454,94.41508 8.8397559,93.259268 9.4789652,91.427163 L 10.050637,89.788631 9.4926625,88.376042 C 9.1857768,87.599121 8.8695632,86.598582 8.7899653,86.152634 8.6333434,85.275153 7.9734973,84.594136 5.7881644,83.054522 4.4778824,82.131405 3.9484311,81.251419 3.9484311,79.996772 c 0,-1.420203 0.6316807,-2.395107 2.1560267,-3.32753 1.3891629,-0.849735 3.4484436,-0.452618 4.7079732,0.90788 0.764635,0.825932 0.868816,2.701438 0.26017,4.683691 l -0.476377,1.551475 0.462596,1.575582 c 1.050638,3.578435 1.224131,3.841595 3.184545,4.830536 1.629783,0.822153 2.210023,1.772893 2.210023,3.621179 0,1.420031 -0.0201,1.471703 -0.945757,2.431732 -1.326086,1.375324 -2.831322,1.773115 -4.120906,1.089051 z m 57.161507,-0.373643 c 0.986302,-0.353503 2.243249,-1.496147 2.795482,-2.541246 0.622892,-1.178818 0.539685,-3.116577 -0.186777,-4.349959 -0.745653,-1.265941 -0.737268,-1.89425 0.05875,-4.39897 0.688098,-2.165221 0.931974,-2.498904 2.376856,-3.252078 1.198235,-0.624597 2.151493,-2.36553 2.151567,-3.929383 6.5e-5,-1.284628 -0.884451,-3.406291 -1.571122,-3.768648 -2.64504,-1.395784 -3.404334,-1.457419 -5.363085,-0.43536 -1.156203,0.603306 -1.448459,0.878967 -1.900829,1.792908 -0.688791,1.391603 -0.736754,3.371901 -0.104875,4.330681 0.625777,0.949508 0.558704,3.658347 -0.137404,5.549722 -0.434948,1.1818 -0.643557,1.470373 -1.281996,1.773386 -0.982032,0.466088 -2.557432,2.049876 -2.931884,2.947489 -0.407854,0.977713 -0.355409,2.615473 0.117358,3.66472 0.406151,0.901383 1.878681,2.290768 2.836536,2.67637 0.770628,0.310224 2.184422,0.28339 3.141454,-0.05963 z m -3.472041,-1.284077 c -1.119771,-0.639267 -1.828843,-1.901035 -1.833472,-3.262617 -0.0057,-1.666131 0.773008,-2.731616 2.970037,-4.063989 0.690925,-0.419007 0.929326,-0.717322 1.042072,-1.30393 0.08043,-0.418342 0.374028,-1.437871 0.652504,-2.26561 0.278468,-0.827738 0.506307,-1.802421 0.506307,-2.165952 0,-0.77007 -0.619501,-2.522724 -0.891703,-2.522724 -0.10247,0 -0.186313,-0.711186 -0.186313,-1.580404 0,-1.446035 0.05671,-1.649744 0.667115,-2.396167 1.215942,-1.486914 3.174644,-1.87038 4.941842,-0.967503 1.142717,0.583823 1.674791,1.434232 1.84149,2.943209 0.143532,1.299264 -0.27683,2.411937 -1.171711,3.101488 -0.310891,0.239562 -1.052592,0.8081 -1.648209,1.26342 -0.999414,0.764 -1.131701,0.977163 -1.714867,2.763386 -0.819089,2.508835 -0.830538,3.938361 -0.04319,5.390704 0.630412,1.162843 0.706848,1.8479 0.332241,2.977707 -0.744267,2.244657 -3.407764,3.262929 -5.464145,2.088982 z M 30.120294,78.804229 c 2.144144,-0.808626 3.796917,-3.165087 3.796917,-5.413513 0,-1.817239 -1.510488,-4.106663 -3.335502,-5.055554 -0.470844,-0.244802 -1.441052,-0.491181 -2.156032,-0.547495 -1.157149,-0.09116 -1.489431,-0.0147 -3.02478,0.696048 -1.948036,0.901777 -2.452713,0.917071 -4.944023,0.14981 -2.543342,-0.783294 -3.404009,-1.317071 -3.927255,-2.435658 -0.254527,-0.544127 -0.788144,-1.242048 -1.185815,-1.550941 -0.397671,-0.308894 -0.950426,-0.763269 -1.228345,-1.009731 -0.277917,-0.246453 -1.052149,-0.562533 -1.720515,-0.702389 -1.605117,-0.335875 -2.9316806,-0.02481 -4.4589832,1.045666 -0.9775476,0.68514 -1.2526556,1.034601 -1.7136042,2.17672 -0.6781629,1.680324 -0.7036881,3.083336 -0.085711,4.711095 0.3810028,1.003554 0.6896559,1.392014 1.735971,2.184812 0.6999168,0.530336 1.6116317,1.02835 2.0260313,1.106718 1.3684011,0.258757 2.9730641,-0.01372 4.3571681,-0.739778 0.724624,-0.380132 1.586007,-0.691153 1.914184,-0.691153 0.328176,0 1.68086,0.344147 3.005966,0.764764 2.581993,0.819583 2.727677,0.929105 4.461416,3.354027 0.715608,1.000892 1.564391,1.611312 2.918577,2.098961 1.132524,0.407837 2.220587,0.364361 3.564335,-0.142409 z m -3.897937,-1.049337 c -0.968285,-0.387984 -2.007268,-1.247083 -2.007268,-1.659741 0,-0.438317 -1.524569,-2.245846 -2.266359,-2.687006 C 21.557247,73.175319 20.524472,72.8201 19.653674,72.618757 18.782878,72.417422 17.789123,72.164242 17.445328,72.056141 16.403929,71.7287 15.630346,71.829195 13.939682,72.511567 11.293118,73.579755 9.5918769,73.375652 7.8621982,71.782451 5.8125944,69.894563 6.1763568,66.351209 8.5842023,64.749507 c 2.3941887,-1.592618 5.3101137,-0.9397 6.8064567,1.524074 1.1289,1.858759 1.83573,2.407913 3.982495,3.094071 1.062211,0.339506 2.582747,0.65875 3.378971,0.70942 1.276846,0.08123 1.616812,0.01232 2.880946,-0.583922 1.767051,-0.833497 2.998484,-0.877563 4.51109,-0.161433 1.267687,0.600186 1.655568,0.999672 2.247234,2.314468 0.648088,1.440163 0.575792,2.540236 -0.273464,4.161157 -0.651364,1.243214 -0.834206,1.423382 -1.886529,1.858932 -1.366955,0.565786 -2.74232,0.596185 -4.009045,0.08862 z m 26.84065,0.06513 c 1.153466,-0.504233 1.372089,-0.710989 2.22414,-2.103463 1.192726,-1.949224 2.104996,-2.923446 2.905001,-3.102292 0.344937,-0.07713 1.423361,-0.421767 2.396486,-0.765898 1.922057,-0.679694 1.904375,-0.680926 4.483165,0.312024 0.999429,0.384821 2.680698,0.443286 3.792825,0.131887 0.42592,-0.119255 1.327833,-0.729921 2.004254,-1.357047 1.178262,-1.092389 1.24377,-1.210453 1.561547,-2.814364 0.304006,-1.534407 0.301578,-1.779292 -0.02909,-2.933846 -0.393422,-1.373615 -1.177952,-2.574298 -1.906737,-2.918191 -0.255154,-0.120397 -0.803492,-0.407557 -1.218525,-0.638124 -0.979025,-0.543897 -3.476866,-0.579455 -4.419857,-0.06292 -0.35575,0.194855 -0.903413,0.48967 -1.217034,0.655136 -0.754461,0.398053 -1.028048,0.748468 -1.819798,2.330851 -0.764827,1.528567 -1.56466,2.168688 -3.309906,2.648994 -0.65965,0.18154 -1.517967,0.47233 -1.907381,0.646207 -0.982357,0.438629 -1.894701,0.395442 -3.280626,-0.155297 -1.585,-0.629837 -4.047565,-0.657649 -5.320923,-0.06004 -1.204623,0.565319 -2.583476,2.296896 -3.019035,3.791346 -0.557555,1.913011 -0.124277,3.341362 1.731628,5.708567 0.44771,0.571059 2.450969,1.21178 3.845182,1.22985 0.868112,0.01125 1.598551,-0.147198 2.504701,-0.543322 z M 48.39749,77.054819 c -1.237129,-0.632958 -2.371559,-2.334161 -2.545886,-3.81784 -0.307852,-2.620007 2.147101,-5.289193 4.864673,-5.289193 0.240853,0 1.170635,0.293386 2.066168,0.651964 0.895533,0.358579 1.957961,0.651965 2.360949,0.651965 0.61115,0 2.688424,-0.695374 4.53834,-1.519219 0.237162,-0.105621 0.673756,-0.259053 0.970208,-0.340952 0.779739,-0.21543 1.089498,-0.523289 1.514537,-1.50524 0.539163,-1.245604 1.623364,-2.667048 2.395109,-3.140118 1.480403,-0.907461 4.287774,-0.716607 5.430939,0.369216 1.263694,1.200297 1.751243,2.220311 1.738482,3.637113 -0.01116,1.238894 -0.687202,3.151165 -1.114026,3.151165 -0.08774,0 -0.422554,0.245837 -0.744031,0.546315 -1.288319,1.204116 -3.226331,1.366001 -5.239003,0.437611 -1.020282,-0.470622 -1.510357,-0.573384 -2.364983,-0.495904 -1.144958,0.103805 -5.431321,1.711216 -6.169216,2.313488 -0.241579,0.197179 -0.799606,1.039957 -1.240055,1.872837 -1.073958,2.030844 -2.154484,2.786688 -4.124578,2.885203 -1.113284,0.05569 -1.595096,-0.0285 -2.337627,-0.408411 z m -7.473484,-6.739094 c 1.159952,-0.294408 2.551883,-1.459755 3.180699,-2.662944 0.381354,-0.729683 0.468,-1.251312 0.457292,-2.752971 -0.01516,-2.12495 -0.10551,-2.344691 -1.709113,-4.156221 -0.649856,-0.734103 -1.222184,-1.54051 -1.271859,-1.792015 -0.04971,-0.251504 -0.14557,-1.60911 -0.213115,-3.016903 -0.132165,-2.754679 0.08423,-3.61938 1.148536,-4.589586 1.351122,-1.231657 2.041526,-3.67488 1.55313,-5.49625 -0.262334,-0.978321 -1.637633,-2.887783 -2.481226,-3.444937 -0.861283,-0.568826 -3.191772,-0.858935 -4.510462,-0.561474 -1.290658,0.291135 -2.570568,1.082257 -2.987052,1.846315 -0.154785,0.283948 -0.465848,0.845636 -0.691259,1.248191 -0.241953,0.432124 -0.447147,1.311232 -0.500954,2.146248 -0.07464,1.158472 -0.0057,1.571574 0.379839,2.283606 0.259033,0.478113 0.611825,1.136156 0.783984,1.462331 0.172151,0.326176 0.639906,0.864651 1.039448,1.196617 1.030965,0.856586 1.186941,1.464484 1.186941,4.626031 v 2.801588 l -0.846836,0.924431 c -1.244683,1.358732 -1.819008,2.655072 -1.916801,4.326533 -0.237642,4.061952 3.207875,6.675113 7.398808,5.61141 z m -4.121131,-1.227931 c -1.727562,-1.161668 -2.454464,-2.359739 -2.454464,-4.045418 0,-1.431399 0.235401,-2.124104 0.990311,-2.914191 0.310777,-0.325263 0.845743,-1.026166 1.18879,-1.557553 0.610131,-0.94508 0.623739,-1.03047 0.623739,-3.913226 0,-1.620881 -0.09218,-3.271003 -0.204827,-3.666946 -0.112657,-0.395935 -0.777148,-1.336571 -1.476638,-2.090296 -0.942543,-1.015611 -1.307542,-1.588421 -1.409817,-2.212516 -0.466281,-2.845097 0.263156,-4.49751 2.491207,-5.643457 3.045128,-1.566186 6.616902,0.798539 6.632213,4.39092 0.0041,0.986075 -0.122386,1.299051 -1.127177,2.786804 -2.013177,2.980829 -1.946838,2.742326 -1.717646,6.175083 l 0.201373,3.016131 1.444661,1.760112 c 2.378812,2.898239 2.485251,4.689695 0.415962,7.001088 -1.028309,1.148624 -1.861894,1.512295 -3.463664,1.511096 -0.999348,-6.49e-4 -1.422668,-0.119296 -2.134023,-0.597631 z M 17.496639,60.292203 c 1.277223,-0.728591 1.725502,-1.494661 2.187636,-3.738488 0.141534,-0.687209 0.418444,-1.391134 0.615352,-1.56428 0.196907,-0.173145 0.9996,-0.848963 1.783761,-1.501806 l 1.425741,-1.186999 h 1.528186 c 2.665379,0 3.541974,-0.302093 4.753337,-1.638081 1.386952,-1.529651 1.733633,-2.792677 1.238123,-4.510751 -0.258455,-0.896151 -0.587828,-1.408999 -1.391638,-2.166864 -2.015865,-1.900641 -4.255602,-1.949677 -6.344766,-0.138911 -1.148665,0.995603 -1.585415,1.85342 -1.793808,3.523173 -0.139178,1.115178 -0.744718,2.106247 -1.286909,2.106247 -0.144661,0 -0.58158,0.299957 -0.97093,0.666561 -1.540533,1.450545 -1.666266,1.506661 -3.376136,1.506661 -1.796493,0 -3.71696,0.474195 -4.211578,1.039915 -0.17921,0.204966 -0.592232,0.891527 -0.917827,1.525684 -0.509435,0.992219 -0.576074,1.329943 -0.477854,2.421761 0.172874,1.921693 0.946927,3.090318 2.599739,3.924948 1.157245,0.584382 1.47427,0.654141 2.410506,0.53036 0.592907,-0.07836 1.595987,-0.437989 2.229065,-0.79913 z M 13.50556,59.858091 c -0.3762,-0.121958 -1.003793,-0.55432 -1.394652,-0.960793 -0.636508,-0.661953 -0.719327,-0.893802 -0.793797,-2.222249 -0.09809,-1.749812 0.217614,-2.530437 1.386964,-3.429454 0.699878,-0.538082 1.011233,-0.612572 3.072565,-0.735105 2.101475,-0.124914 3.10928,-0.371153 3.299092,-0.806087 0.03998,-0.09162 0.724695,-0.685608 1.52159,-1.319987 1.384834,-1.102414 1.886977,-1.909857 1.891736,-3.041898 6.52e-4,-0.157137 0.204184,-0.76129 0.452265,-1.342575 1.41918,-3.325271 6.170814,-3.026661 7.098534,0.446104 0.309172,1.157331 0.08132,2.209526 -0.69152,3.193112 -0.982407,1.250327 -1.724344,1.554194 -3.839632,1.572535 -1.988657,0.01725 -2.493799,0.221902 -4.364172,1.768145 -2.119349,1.752071 -2.113798,1.744498 -2.309256,3.149169 -0.304446,2.1879 -1.120117,3.320318 -2.705293,3.755835 -1.022635,0.280959 -1.696428,0.274092 -2.624424,-0.02678 z m 51.350639,-0.364082 c 1.008189,-0.471517 2.14081,-1.610827 2.466207,-2.480785 0.298481,-0.798021 0.265152,-3.116716 -0.05712,-3.971018 -0.280334,-0.743203 -1.379056,-1.787357 -2.47755,-2.354507 -0.561205,-0.289747 -1.164801,-0.354734 -2.802841,-0.301789 -1.924819,0.06218 -2.125425,0.02932 -2.572703,-0.421487 -0.266815,-0.268942 -0.597426,-0.48898 -0.7347,-0.48898 -0.137266,0 -0.754975,-0.39301 -1.372668,-0.873358 -1.002558,-0.77963 -1.175361,-1.04031 -1.610163,-2.42898 -0.267898,-0.8556 -0.572947,-1.66057 -0.677903,-1.788836 -0.104948,-0.128257 -0.400439,-0.514426 -0.656628,-0.858137 -0.670407,-0.899412 -1.980304,-1.429198 -3.547686,-1.434849 -1.138301,-0.0041 -1.469621,0.0939 -2.371624,0.701527 -1.937222,1.304981 -2.666903,3.814177 -1.753745,6.030668 0.396576,0.962617 0.722975,1.355685 1.676861,2.019395 l 1.184431,0.824133 2.048224,-0.09714 2.048224,-0.09713 1.509225,0.941376 c 1.987768,1.239879 2.792206,2.132514 3.108288,3.449093 0.248799,1.036302 1.147061,2.585871 1.830335,3.157456 1.064375,0.890393 3.379781,1.120476 4.763498,0.473341 z m -2.991542,-0.768591 c -1.019125,-0.374809 -2.264761,-1.550506 -2.428747,-2.292379 -0.443692,-2.007255 -0.600816,-2.332584 -1.602267,-3.31746 -0.577307,-0.567749 -1.162241,-1.032277 -1.29985,-1.032277 -0.137616,0 -0.722868,-0.342274 -1.300567,-0.760624 -1.032635,-0.747786 -1.086694,-0.760624 -3.202651,-0.760624 -2.018074,0 -2.218387,-0.04099 -3.212299,-0.657435 -2.232721,-1.384753 -2.352223,-4.098126 -0.260003,-5.903274 1.540573,-1.329187 3.399371,-1.262705 4.98164,0.178172 0.656734,0.598058 0.88604,1.009205 1.075279,1.928034 0.344228,1.671387 0.9437,2.429293 3.132343,3.960184 l 1.934199,1.352917 2.077389,-0.03811 c 1.82441,-0.03343 2.19689,0.02579 3.058638,0.486614 0.989211,0.528964 1.675915,1.464746 1.957211,2.66713 0.188847,0.807212 -0.203344,2.202364 -0.794358,2.825761 -1.343487,1.417099 -2.725297,1.8748 -4.115957,1.36334 z"
       id="path863"
       sodipodi:nodetypes="cssscsssssscscccssssscsssssscccssssssssssssscsssssssssssssscsssssssccscssssscsssssssssssssssssccssssssssssscccssssssssssscsssssssscsssscssssssscssssscssssssssssssssccscssssssssssssssssssssssssssssssssssssssssssssssscssssscssssssssssssssssssssccssssssssssssssssssssssscsssssssscssscsssssssssscscsscsscssssscssssssssssssscscssssssssssssssccsssscsssssssssscccssssscssssssssssccssscc" />
    <path
       style="fill:#ffffff;fill-opacity:1;fill-rule:nonzero;stroke:#ffffff;stroke-width:0.282138;stroke-linecap:round;stroke-linejoin:round;stroke-miterlimit:4;stroke-dasharray:none;stroke-opacity:1"
       d="m 32.464453,235.10433 c 0.468798,-0.18949 1.343304,-0.73259 1.943353,-1.20687 1.073808,-0.84876 1.114799,-0.86269 2.601705,-0.88404 3.1297,-0.0449 3.280961,-0.0213 4.310968,0.67484 1.382421,0.93428 2.297713,1.28367 3.37516,1.28837 1.367562,0.006 1.927489,-0.17456 3.100109,-0.99946 1.280049,-0.90049 1.577213,-1.59895 1.471668,-3.45901 -0.06788,-1.19699 -0.158508,-1.45712 -0.724536,-2.08036 -0.86835,-0.95613 -1.719754,-1.36892 -3.081437,-1.494 -1.755373,-0.16123 -3.107452,0.20485 -3.868192,1.04733 -0.977828,1.08288 -1.739241,1.31794 -4.269201,1.31794 -2.163479,0 -2.184097,-0.004 -2.7944,-0.57553 -2.532326,-2.37041 -6.225245,-2.06498 -7.872636,0.65111 -0.626131,1.03233 -0.638498,2.71166 -0.02753,3.74361 1.163015,1.9645 3.720722,2.83069 5.835005,1.97607 z m -3.15505,-0.8322 c -1.812268,-0.93875 -2.198038,-1.4768 -2.198038,-3.06566 0,-1.24832 0.33079,-1.7548 1.739019,-2.66267 0.620304,-0.3999 1.073333,-0.53885 1.756845,-0.53885 1.185809,0 1.993792,0.36446 3.826591,1.72611 0.211304,0.15698 1.175603,0.22927 3.035382,0.22757 2.870498,-0.003 3.70334,-0.19385 4.335353,-0.99542 0.595515,-0.75527 1.863031,-1.33086 2.930699,-1.33086 1.167532,0 1.914063,0.29066 2.708516,1.0546 0.806986,0.77598 1.019928,1.24024 1.019928,2.22365 0,1.0746 -0.779611,2.36464 -1.679221,2.77866 -1.634685,0.7523 -3.660789,0.43262 -5.08197,-0.80186 l -0.795094,-0.69065 h -2.892778 -2.892777 l -0.949052,0.77855 c -1.719564,1.41063 -3.649981,1.92538 -4.863403,1.29683 z m -5.802768,-4.32549 c 2.346134,-1.04048 3.423657,-3.07357 3.003874,-5.66773 -0.17881,-1.10502 -0.14914,-1.30529 0.339066,-2.28887 0.294252,-0.59283 0.645748,-1.13776 0.781097,-1.21096 0.135342,-0.0732 0.631207,-0.64214 1.101927,-1.26434 0.814558,-1.07668 0.914778,-1.14278 2.077017,-1.37003 3.416572,-0.66802 5.303228,-2.52559 5.303228,-5.22147 0,-2.01124 -1.414354,-3.71436 -3.723578,-4.48382 -1.409116,-0.46954 -2.043653,-0.46391 -3.54302,0.0314 -1.597111,0.52762 -2.788146,1.59481 -3.399873,3.04636 -0.443164,1.05156 -0.455704,1.2072 -0.211692,2.62601 l 0.259393,1.50818 -0.643795,1.044 c -0.505564,0.81985 -1.613111,2.21739 -2.888752,3.64514 -0.03299,0.0369 -0.697524,0.18606 -1.476755,0.33143 -1.795392,0.33494 -2.938104,0.93056 -3.757195,1.9584 -1.318714,1.6548 -1.51584,3.44552 -0.554049,5.0331 0.316619,0.52263 0.663684,1.0964 0.771255,1.27505 0.107563,0.17865 0.766975,0.58158 1.465354,0.89541 1.718353,0.77217 3.519703,0.81202 5.096498,0.11273 z m -4.245388,-0.57441 c -2.087247,-0.50415 -3.192608,-3.20276 -2.260186,-5.51796 0.43571,-1.08185 1.6879,-1.88027 3.74509,-2.38795 1.886158,-0.46547 2.454662,-0.89465 3.998322,-3.01848 1.800832,-2.47766 1.817748,-2.52649 1.511026,-4.3613 l -0.256114,-1.53206 0.712997,-1.26386 c 0.640194,-1.13481 0.830539,-1.31505 1.864344,-1.76534 1.401497,-0.61044 2.359015,-0.64456 3.812643,-0.13584 1.375735,0.48145 1.79684,0.80942 2.253643,1.75515 0.64521,1.33582 0.681597,2.00149 0.183256,3.35251 -0.540575,1.46551 -1.102298,1.86813 -3.631578,2.60291 -2.097786,0.60944 -2.800959,1.14943 -4.405404,3.38307 l -1.355011,1.88639 0.05356,2.21226 c 0.05253,2.17149 0.04193,2.22908 -0.576938,3.1253 -0.978841,1.41754 -1.472967,1.66006 -3.499103,1.71735 -0.952518,0.027 -1.920258,0.004 -2.150527,-0.0522 z m 37.771036,-0.3362 c 2.592796,-1.1693 3.692745,-4.1186 2.425301,-6.50296 -0.285803,-0.53765 -0.733255,-1.15569 -0.994349,-1.3734 -0.593782,-0.49514 -2.62851,-1.34778 -3.222111,-1.3502 -0.813766,-0.004 -2.265978,-0.56921 -2.798056,-1.09031 -0.28892,-0.28296 -0.781849,-0.86124 -1.095399,-1.28505 -0.313542,-0.42382 -0.855201,-1.03016 -1.203682,-1.34742 -0.609409,-0.55482 -0.633604,-0.64028 -0.633604,-2.23797 0,-2.69956 -0.266608,-3.46893 -1.593804,-4.59933 -2.340002,-1.99305 -5.073425,-2.04855 -7.561063,-0.15353 -0.974054,0.74202 -1.730633,2.30847 -1.730633,3.58317 0,1.39978 0.77033,2.9839 1.764488,3.62852 1.245235,0.80742 1.874503,1.06602 3.095402,1.27209 1.558872,0.2631 2.798016,0.84493 3.077252,1.44488 0.129732,0.27874 0.544388,0.8065 0.921455,1.1728 1.621195,1.57491 1.608125,1.54572 1.609398,3.59437 0.0016,2.52644 0.193289,3.0417 1.596407,4.29042 1.316776,1.1719 1.877597,1.37248 3.904469,1.39646 1.119799,0.0132 1.635301,-0.0803 2.438529,-0.44254 z m -4.067842,-0.56599 c -1.070271,-0.33713 -2.513534,-1.68755 -2.806221,-2.62572 -0.124755,-0.39988 -0.227357,-1.49084 -0.227998,-2.42435 -7.91e-4,-1.5259 -0.05697,-1.77048 -0.553416,-2.42194 -0.907538,-1.19082 -2.257037,-2.6808 -2.428038,-2.6808 -0.08787,0 -0.159758,-0.12699 -0.159758,-0.2822 0,-0.40821 -1.173925,-0.9818 -2.508281,-1.22557 -1.942214,-0.3548 -2.522507,-0.55818 -3.278769,-1.14912 -1.538784,-1.20241 -1.935251,-2.88323 -1.09172,-4.62832 0.347793,-0.7195 0.703126,-1.07754 1.588305,-1.60044 2.009449,-1.18704 4.136462,-1.01545 5.859452,0.47266 1.020505,0.88139 1.315042,1.76983 1.315042,3.96667 0,2.00211 0.0409,2.0796 2.48377,4.70409 1.512034,1.62447 2.085175,1.92176 4.058949,2.10536 1.243804,0.1157 1.36473,0.17316 2.510758,1.19309 l 1.204014,1.07153 v 1.69579 1.69579 l -0.85441,0.82493 c -1.51917,1.46675 -3.223978,1.90317 -5.111679,1.30855 z M 13.609159,222.6906 c 0.669112,-0.27791 0.979719,-0.6176 1.517691,-1.56117 0.832027,-1.45934 0.859766,-2.23314 0.13349,-3.72353 -0.446969,-0.91721 -0.705072,-1.19558 -1.413024,-1.52396 -1.642359,-0.76181 -2.385994,-1.42815 -2.851944,-2.55549 -0.241883,-0.58522 -0.576993,-1.32823 -0.744695,-1.65112 -0.4170219,-0.80291 -0.3840291,-1.25044 0.159877,-2.16831 0.634648,-1.071 0.666841,-3.15804 0.06108,-3.9597 -0.228869,-0.30289 -0.511918,-0.7142 -0.6289909,-0.91403 -0.3515193,-0.6 -2.3238458,-1.40712 -3.4271809,-1.40246 -1.8624931,0.008 -3.6791128,1.17428 -4.3109282,2.76798 -0.415155,1.04722 -0.4085802,1.86718 0.022945,2.8598 0.4507429,1.03681 0.9276189,1.49031 2.6224502,2.49386 1.248171,0.73906 1.4365541,0.93236 1.7547246,1.80046 0.1960499,0.53487 0.4293649,1.05633 0.5184928,1.1588 0.4246336,0.48819 0.4282256,1.88823 0.00791,3.07398 -0.5694299,1.60636 -0.7466651,2.70898 0.066065,3.68567 1.0014927,1.20356 0.8382457,1.14336 2.1699192,1.88172 0.9868712,0.54719 1.1203222,0.32593 2.7561782,0.39617 z m -3.7680587,-0.39747 c -0.8376444,-0.39231 -1.7492574,-1.15956 -2.1120592,-1.7776 -0.4386693,-0.74729 -0.360887,-1.73813 0.2597409,-3.30873 l 0.5550617,-1.40466 -0.5417617,-1.21096 c -0.2979635,-0.66603 -0.6049861,-1.52376 -0.6822778,-1.90605 -0.1520674,-0.75224 -0.7927362,-1.33605 -2.9145588,-2.65591 -1.2721995,-0.79135 -1.7862616,-1.54574 -1.7862616,-2.6213 0,-1.21749 0.6133252,-2.05324 2.0933633,-2.85258 1.348795,-0.72845 3.3482199,-0.38801 4.5711438,0.7783 0.7424161,0.70804 0.8435701,2.31585 0.2526122,4.01516 l -0.4625317,1.33003 0.4491526,1.35069 c 1.020102,3.06767 1.188555,3.29327 3.091992,4.14105 1.582418,0.70481 2.145788,1.51984 2.145788,3.10432 0,1.21734 -0.01954,1.26164 -0.918267,2.08464 -1.287549,1.17901 -2.749034,1.52003 -4.0011367,0.9336 z m 55.5002087,-0.32031 c 0.957637,-0.30304 2.178053,-1.28259 2.714237,-2.17852 0.604788,-1.01056 0.523999,-2.67174 -0.181349,-3.72907 -0.723982,-1.08525 -0.715841,-1.62388 0.05705,-3.77109 0.668099,-1.85617 0.904887,-2.14222 2.307776,-2.78789 1.163411,-0.53545 2.088965,-2.02789 2.089036,-3.36853 6.3e-5,-1.10126 -0.858746,-2.92009 -1.525461,-3.23073 -2.568166,-1.19656 -3.305392,-1.2494 -5.207216,-0.37322 -1.1226,0.51719 -1.406362,0.75351 -1.845585,1.537 -0.668772,1.19297 -0.715342,2.89061 -0.101826,3.71254 0.607589,0.81398 0.542466,3.13618 -0.133411,4.75759 -0.422308,1.01312 -0.624853,1.2605 -1.244738,1.52026 -0.953491,0.39956 -2.483105,1.75729 -2.846674,2.52678 -0.396,0.83816 -0.345079,2.24216 0.113948,3.14164 0.394346,0.77273 1.82408,1.9638 2.754097,2.29436 0.748231,0.26595 2.120936,0.24294 3.050153,-0.0511 z m -3.371132,-1.10079 c -1.087227,-0.54802 -1.775692,-1.6297 -1.780186,-2.79693 -0.0055,-1.42832 0.750542,-2.34172 2.883718,-3.48392 0.670845,-0.3592 0.902317,-0.61494 1.011787,-1.11782 0.07809,-0.35863 0.363157,-1.23263 0.63354,-1.94223 0.270374,-0.70959 0.491592,-1.54515 0.491592,-1.85679 0,-0.66016 -0.601497,-2.16265 -0.865787,-2.16265 -0.09949,0 -0.180899,-0.60967 -0.180899,-1.35482 0,-1.23964 0.05507,-1.41427 0.647727,-2.05415 1.180603,-1.27469 3.082379,-1.60342 4.798216,-0.82941 1.109506,0.50049 1.626116,1.22952 1.787971,2.52311 0.13936,1.11382 -0.268785,2.06767 -1.137657,2.6588 -0.301857,0.20537 -1.022001,0.69276 -1.600308,1.08309 -0.970367,0.65495 -1.098809,0.83768 -1.665027,2.36895 -0.795284,2.15074 -0.8064,3.37622 -0.04193,4.62127 0.612091,0.99686 0.686305,1.58414 0.322585,2.55268 -0.722636,1.92427 -3.308723,2.7972 -5.305339,1.79082 z M 28.030209,206.38559 c 2.081828,-0.6932 3.686566,-2.71332 3.686566,-4.64082 0,-1.55785 -1.466588,-3.5205 -3.23856,-4.33395 -0.45716,-0.20986 -1.399171,-0.42107 -2.093372,-0.46935 -1.123515,-0.0781 -1.44614,-0.0126 -2.936869,0.5967 -1.891419,0.77307 -2.381429,0.78618 -4.800337,0.12843 -2.469425,-0.67149 -3.305076,-1.12908 -3.813117,-2.08801 -0.247129,-0.46646 -0.765235,-1.06476 -1.151353,-1.32957 -0.38611,-0.2648 -0.9228,-0.65432 -1.192645,-0.8656 -0.269836,-0.21128 -1.021565,-0.48224 -1.67051,-0.60214 -1.5584609,-0.28793 -2.8464763,-0.0213 -4.3293864,0.89642 -0.9491394,0.58734 -1.2162542,0.88693 -1.6638007,1.86602 -0.6584549,1.44049 -0.683243,2.64324 -0.083226,4.03866 0.3699304,0.86031 0.6696186,1.19333 1.6855189,1.87297 0.6795798,0.45463 1.5647907,0.88157 1.9671521,0.94875 1.3286274,0.22182 2.8866541,-0.0118 4.2305351,-0.63419 0.703561,-0.32587 1.539908,-0.5925 1.858553,-0.5925 0.318638,0 1.632003,0.29502 2.918602,0.6556 2.506952,0.7026 2.648401,0.79649 4.331753,2.8753 0.69481,0.85803 1.518925,1.38132 2.833756,1.79936 1.099609,0.34963 2.156047,0.31236 3.46074,-0.12208 z m -3.784647,-0.89956 c -0.940145,-0.3326 -1.948933,-1.06908 -1.948933,-1.42284 0,-0.37575 -1.48026,-1.92528 -2.200491,-2.30348 -0.380105,-0.19959 -1.382864,-0.50411 -2.228357,-0.67671 -0.845485,-0.1726 -1.810361,-0.38964 -2.144165,-0.48231 -1.01113,-0.28071 -1.762233,-0.19456 -3.403754,0.39042 -2.569654,0.91572 -4.2214443,0.74075 -5.9008552,-0.62505 -1.9900335,-1.61842 -1.6368448,-4.65601 0.7010211,-6.0291 2.3246053,-1.36529 5.1557801,-0.80557 6.6086411,1.30654 1.096088,1.59345 1.782377,2.06422 3.866744,2.65244 1.031344,0.29105 2.507688,0.56472 3.280771,0.60816 1.239737,0.0696 1.569822,0.0106 2.797219,-0.50057 1.715695,-0.71453 2.911335,-0.75231 4.37998,-0.13839 1.230844,0.51451 1.607452,0.85698 2.181922,1.98411 0.629252,1.2346 0.559057,2.17765 -0.265517,3.56721 -0.632432,1.06577 -0.80996,1.22022 -1.831699,1.5936 -1.327227,0.48503 -2.662616,0.51109 -3.892527,0.076 z m 26.060572,0.0558 c 1.119942,-0.43226 1.332211,-0.60951 2.159499,-1.80323 1.158062,-1.671 2.043819,-2.50617 2.820573,-2.65949 0.334912,-0.0661 1.381993,-0.36156 2.326837,-0.65657 1.866196,-0.58268 1.849027,-0.58374 4.352869,0.26748 0.970383,0.3299 2.602789,0.38002 3.682594,0.11307 0.413541,-0.10224 1.289242,-0.62574 1.946004,-1.16335 1.144018,-0.93647 1.207622,-1.03768 1.516164,-2.41266 0.29517,-1.31539 0.292812,-1.52532 -0.02825,-2.51508 -0.381988,-1.17756 -1.143718,-2.20686 -1.851321,-2.50167 -0.247739,-0.10321 -0.780141,-0.34938 -1.183112,-0.54704 -0.950571,-0.46627 -3.375816,-0.49675 -4.291401,-0.0539 -0.345411,0.16704 -0.877157,0.41978 -1.181663,0.56163 -0.732535,0.34123 -0.99817,0.64163 -1.766909,1.99816 -0.742599,1.31038 -1.519187,1.85914 -3.213709,2.27089 -0.640479,0.15563 -1.473851,0.40491 -1.851947,0.55397 -0.953807,0.37602 -1.839635,0.339 -3.185281,-0.13313 -1.538935,-0.53994 -3.929929,-0.56378 -5.16628,-0.0515 -1.169613,0.48462 -2.508392,1.96904 -2.931292,3.25018 -0.541351,1.63996 -0.120665,2.86444 1.681301,4.89376 0.434698,0.48955 2.379736,1.03882 3.733429,1.05431 0.842882,0.01 1.552092,-0.12619 2.431907,-0.46577 z m -4.529923,-0.65599 c -1.201174,-0.54261 -2.302634,-2.00099 -2.471894,-3.2729 -0.298905,-2.24604 2.0847,-4.53424 4.723291,-4.53424 0.233853,0 1.136612,0.25151 2.006118,0.55891 0.869506,0.30739 1.901056,0.5589 2.292333,0.5589 0.593387,0 2.610289,-0.59612 4.406441,-1.30237 0.230269,-0.0906 0.654174,-0.22208 0.942011,-0.29229 0.757077,-0.18468 1.057833,-0.4486 1.47052,-1.29039 0.523493,-1.06781 1.576183,-2.28637 2.325499,-2.69191 1.437377,-0.77794 4.163157,-0.61433 5.273099,0.31651 1.226967,1.02898 1.700345,1.9034 1.687955,3.11797 -0.01084,1.06207 -0.667229,2.70139 -1.081648,2.70139 -0.08519,0 -0.410273,0.21075 -0.722407,0.46833 -1.250877,1.03225 -3.132564,1.17103 -5.086741,0.37515 -0.99063,-0.40345 -1.466461,-0.49154 -2.296249,-0.42512 -1.111682,0.089 -5.27347,1.46697 -5.98992,1.98327 -0.234557,0.16904 -0.776366,0.89152 -1.204014,1.60552 -1.042746,1.74098 -2.091868,2.38894 -4.004705,2.47339 -1.080928,0.0477 -1.548737,-0.0244 -2.269689,-0.35012 z m -7.25628,-5.77719 c 1.12624,-0.25238 2.477717,-1.2514 3.088257,-2.28285 0.370271,-0.62553 0.454399,-1.07271 0.444002,-2.36003 -0.01472,-1.82164 -0.102443,-2.01002 -1.659441,-3.56298 -0.630969,-0.62932 -1.186663,-1.32063 -1.234895,-1.53623 -0.04826,-0.21561 -0.141338,-1.37944 -0.20692,-2.58629 -0.128324,-2.36149 0.08178,-3.10277 1.115155,-3.9345 1.311854,-1.05585 1.982193,-3.15034 1.507991,-4.71174 -0.254709,-0.83868 -1.590038,-2.4756 -2.409113,-2.95323 -0.836252,-0.48763 -3.099009,-0.73633 -4.379374,-0.48133 -1.253148,0.24958 -2.495859,0.92778 -2.900238,1.58278 -0.150287,0.24342 -0.45231,0.72494 -0.67117,1.07003 -0.234921,0.37045 -0.434151,1.12408 -0.486394,1.83991 -0.07247,0.99312 -0.0055,1.34725 0.368799,1.95765 0.251505,0.40987 0.594044,0.97399 0.7612,1.25361 0.167147,0.27962 0.621308,0.74124 1.009238,1.02582 1.001002,0.73432 1.152444,1.25545 1.152444,3.96574 v 2.4017 l -0.822224,0.79248 c -1.208508,1.1648 -1.766141,2.27611 -1.861092,3.70899 -0.230736,3.48217 3.114643,5.72234 7.183775,4.81047 z m -4.001358,-1.05266 c -1.677354,-0.99586 -2.38313,-2.02292 -2.38313,-3.468 0,-1.22709 0.22856,-1.82092 0.96153,-2.49823 0.301745,-0.27884 0.821163,-0.8797 1.15424,-1.33524 0.592398,-0.81019 0.605611,-0.88339 0.605611,-3.35468 0,-1.38952 -0.0895,-2.80411 -0.198874,-3.14354 -0.109383,-0.33942 -0.754561,-1.1458 -1.433722,-1.79194 -0.91515,-0.87065 -1.269541,-1.3617 -1.368844,-1.89672 -0.452728,-2.439 0.255508,-3.85556 2.418805,-4.83794 2.956627,-1.34263 6.424594,0.68456 6.43946,3.76419 0.004,0.84533 -0.118829,1.11363 -1.094418,2.38903 -1.954667,2.55536 -1.890256,2.3509 -1.667725,5.29368 l 0.19552,2.58563 1.402675,1.50888 c 2.309676,2.48456 2.413021,4.02032 0.403873,6.0018 -0.998423,0.98467 -1.807783,1.29644 -3.363,1.29541 -0.970304,-5.6e-4 -1.381321,-0.10227 -2.072001,-0.51233 z m -18.745136,-7.54016 c 1.240101,-0.6246 1.675352,-1.28132 2.124062,-3.20488 0.137414,-0.58912 0.406277,-1.19257 0.597461,-1.341 0.191184,-0.14843 0.97055,-0.72779 1.731923,-1.28745 l 1.384304,-1.01757 h 1.483772 c 2.587917,0 3.439032,-0.25897 4.615189,-1.40427 1.346643,-1.31132 1.683248,-2.39407 1.202139,-3.86691 -0.250943,-0.76824 -0.570743,-1.20789 -1.351192,-1.85758 -1.957275,-1.62935 -4.13192,-1.67139 -6.160366,-0.11908 -1.115282,0.85349 -1.539338,1.58887 -1.741678,3.02029 -0.135128,0.956 -0.723071,1.80561 -1.249508,1.80561 -0.140452,0 -0.564675,0.25715 -0.942707,0.57142 -1.495759,1.24351 -1.61784,1.29161 -3.278017,1.29161 -1.744281,0 -3.608934,0.40651 -4.089173,0.89149 -0.1740067,0.17571 -0.5750231,0.76427 -0.8911524,1.30791 -0.4946304,0.8506 -0.5593342,1.14012 -0.4639716,2.0761 0.1678517,1.6474 0.9194142,2.64922 2.524184,3.36472 1.123613,0.50097 1.431427,0.56077 2.340453,0.45466 0.575672,-0.0672 1.5496,-0.37548 2.164278,-0.68507 z m -3.875083,-0.37215 c -0.365271,-0.10455 -0.974624,-0.4752 -1.35412,-0.82365 -0.6180092,-0.56747 -0.6984182,-0.76623 -0.7707254,-1.90506 -0.095244,-1.50006 0.2112882,-2.16926 1.3466504,-2.93995 0.679541,-0.46128 0.981848,-0.52514 2.983266,-0.63018 2.040401,-0.10709 3.018918,-0.31818 3.20321,-0.69104 0.03885,-0.0785 0.703632,-0.58774 1.477372,-1.13158 1.344586,-0.94506 1.832135,-1.63725 1.836756,-2.60771 6.33e-4,-0.13471 0.198249,-0.65263 0.43912,-1.15094 1.377935,-2.85064 5.99147,-2.59466 6.892228,0.38243 0.300186,0.99214 0.07896,1.89415 -0.671423,2.73734 -0.953855,1.07186 -1.674225,1.33236 -3.728037,1.34808 -1.930862,0.0148 -2.421323,0.19023 -4.237342,1.51577 -2.057751,1.50199 -2.052363,1.4955 -2.242139,2.69968 -0.295598,1.87561 -1.087559,2.84639 -2.626667,3.21974 -0.992916,0.24086 -1.647123,0.23497 -2.548149,-0.023 z m 49.858224,-0.31211 c 0.978888,-0.40422 2.078592,-1.38091 2.394531,-2.1267 0.289806,-0.68411 0.257447,-2.67185 -0.05546,-3.40421 -0.272187,-0.63712 -1.338977,-1.53224 -2.405545,-2.01844 -0.544895,-0.24839 -1.130948,-0.3041 -2.721381,-0.25871 -1.868878,0.0533 -2.063654,0.0251 -2.497932,-0.36133 -0.259061,-0.23056 -0.580064,-0.41919 -0.713348,-0.41919 -0.133277,0 -0.733033,-0.33691 -1.332773,-0.7487 -0.973421,-0.66835 -1.141202,-0.89182 -1.563367,-2.08228 -0.260113,-0.73347 -0.556296,-1.42355 -0.658202,-1.5335 -0.101897,-0.10996 -0.3888,-0.441 -0.637543,-0.73566 -0.650923,-0.77103 -1.922751,-1.2252 -3.44458,-1.23004 -1.105218,-0.004 -1.426909,0.0805 -2.302697,0.60139 -1.88092,1.11872 -2.589394,3.26976 -1.702775,5.16989 0.38505,0.82521 0.701963,1.16218 1.628126,1.73115 l 1.150008,0.70651 1.988696,-0.0833 1.988696,-0.0833 1.465362,0.80701 c 1.929997,1.06291 2.711056,1.82813 3.017952,2.95679 0.241567,0.88838 1.113723,2.21678 1.777139,2.70678 1.033441,0.7633 3.281554,0.96054 4.625056,0.40578 z m -2.904598,-0.65889 c -0.989506,-0.32131 -2.19894,-1.3292 -2.35816,-1.96518 -0.430796,-1.72075 -0.583354,-1.99964 -1.555699,-2.84394 -0.560529,-0.48671 -1.128464,-0.88494 -1.262073,-0.88494 -0.133616,0 -0.701859,-0.29342 -1.262768,-0.65205 -1.002624,-0.64106 -1.055112,-0.65206 -3.109572,-0.65206 -1.959423,0 -2.153914,-0.0351 -3.11894,-0.5636 -2.167831,-1.1871 -2.283859,-3.51318 -0.252446,-5.06067 1.495798,-1.13947 3.300574,-1.08248 4.836858,0.15274 0.637646,0.51269 0.860288,0.86516 1.044027,1.65284 0.334224,1.43282 0.916273,2.08255 3.041308,3.39493 l 1.877985,1.1598 2.017013,-0.0327 c 1.771387,-0.0287 2.133042,0.0221 2.969745,0.41716 0.960461,0.45346 1.627207,1.25568 1.900327,2.28644 0.18336,0.69199 -0.197434,1.88801 -0.771271,2.42243 -1.30444,1.21483 -2.646091,1.6072 -3.996334,1.16874 z"
       id="path863-7"
       sodipodi:nodetypes="cssscsssssscscccssssscsssssscccssssssssssssscsssssssssssssscsssssssccscssssscsssssssssssssssssccssssssssssscccssssssssssscsssssssscsssscssssssscssssscssssssssssssssccscssssssssssssssssssssssssssssssssssssssssssssssscssssscssssssssssssssssssssccssssssssssssssssssssssscsssssssscssscsssssssssscscsscsscssssscssssssssssssscscssssssssssssssccsssscsssssssssscccssssscssssssssssccssscc" />
    <text
       xml:space="preserve"
       style="font-style:normal;font-weight:normal;font-size:10.5833px;line-height:1.25;font-family:sans-serif;white-space:pre;inline-size:168.601;fill:#000000;fill-opacity:1;stroke:none;stroke-width:0.264583"
       x="101.02788"
       y="73.23185"
       id="text1744" />
    <text
       xml:space="preserve"
       style="font-style:normal;font-weight:normal;font-size:50.8px;line-height:1.25;font-family:sans-serif;fill:#000000;fill-opacity:1;stroke:none;stroke-width:0.264583"
       x="81.266647"
       y="91.790375"
       id="text1750"><tspan
         sodipodi:role="line"
         id="tspan1748"
         x="81.266647"
         y="91.790375"
         style="font-style:normal;font-variant:normal;font-weight:bold;font-stretch:normal;font-size:50.8px;font-family:Gadugi;-inkscape-font-specification:'Gadugi Bold';stroke-width:0.264583">Deep-Up</tspan></text>
  </g>
</svg>
