<?xml version="1.0" encoding="UTF-8" standalone="no"?>
<svg
   xmlns:dc="http://purl.org/dc/elements/1.1/"
   xmlns:cc="http://creativecommons.org/ns#"
   xmlns:rdf="http://www.w3.org/1999/02/22-rdf-syntax-ns#"
   xmlns:svg="http://www.w3.org/2000/svg"
   xmlns="http://www.w3.org/2000/svg"
   xmlns:sodipodi="http://sodipodi.sourceforge.net/DTD/sodipodi-0.dtd"
   xmlns:inkscape="http://www.inkscape.org/namespaces/inkscape"
   width="278.05881mm"
   height="76.605377mm"
   viewBox="0 0 278.05881 76.605377"
   version="1.1"
   id="svg1166"
   inkscape:version="1.0.2-2 (e86c870879, 2021-01-15)"
   sodipodi:docname="deepupLogoWhieTransp.svg"
   inkscape:export-filename="C:\Dev\DeepUp\LegalProps\legal-props-web\webclient\public\img\deepupLogoWhieTransp.png"
   inkscape:export-xdpi="96"
   inkscape:export-ydpi="96">
  <defs
     id="defs1160" />
  <sodipodi:namedview
     id="base"
     pagecolor="#ffffff"
     bordercolor="#666666"
     borderopacity="1.0"
     inkscape:pageopacity="0.0"
     inkscape:pageshadow="2"
     inkscape:zoom="0.7"
     inkscape:cx="599.0847"
     inkscape:cy="150.91298"
     inkscape:document-units="mm"
     inkscape:current-layer="layer1"
     inkscape:document-rotation="0"
     showgrid="false"
     inkscape:window-width="1920"
     inkscape:window-height="1027"
     inkscape:window-x="1912"
     inkscape:window-y="-8"
     inkscape:window-maximized="1"
     fit-margin-top="0"
     fit-margin-left="0"
     fit-margin-right="0"
     fit-margin-bottom="0" />
  <metadata
     id="metadata1163">
    <rdf:RDF>
      <cc:Work
         rdf:about="">
        <dc:format>image/svg+xml</dc:format>
        <dc:type
           rdf:resource="http://purl.org/dc/dcmitype/StillImage" />
        <dc:title></dc:title>
      </cc:Work>
    </rdf:RDF>
  </metadata>
  <g
     inkscape:label="Layer 1"
     inkscape:groupmode="layer"
     id="layer1"
     transform="translate(-10.908799,-19.427536)">
    <rect
       style="fill:#2cd99b;fill-opacity:1;fill-rule:evenodd;stroke:none;stroke-width:0.604301;stroke-linecap:round;stroke-linejoin:round;stroke-miterlimit:4;stroke-dasharray:none;stroke-opacity:1"
       id="rect1802"
       width="278.05881"
       height="76.605377"
       x="10.908799"
       y="19.427536"
       ry="11.717748"
       inkscape:export-xdpi="96"
       inkscape:export-ydpi="96" />
    <text
       xml:space="preserve"
       style="font-style:normal;font-weight:normal;font-size:45.0534px;line-height:1.25;font-family:sans-serif;fill:#404040;fill-opacity:1;stroke:none;stroke-width:0.234653"
       x="88.884712"
       y="68.322617"
       id="text1750-0"><tspan
         sodipodi:role="line"
         id="tspan1748-3"
         x="88.884712"
         y="68.322617"
         style="font-style:normal;font-variant:normal;font-weight:bold;font-stretch:normal;font-size:45.0534px;font-family:Gadugi;-inkscape-font-specification:'Gadugi Bold';fill:#404040;fill-opacity:1;stroke-width:0.234653">Deep-Up </tspan></text>
    <path
       style="fill:#ffffff;fill-opacity:1;fill-rule:nonzero;stroke:#ffffff;stroke-width:0.266887;stroke-linecap:round;stroke-linejoin:round;stroke-miterlimit:4;stroke-dasharray:none;stroke-opacity:1"
       d="m 46.720954,88.362685 c 0.412051,-0.192912 1.180698,-0.74581 1.708111,-1.228659 0.943825,-0.86407 0.979854,-0.878251 2.286771,-0.899994 2.750852,-0.04571 2.883802,-0.02161 3.789127,0.687024 1.21508,0.951146 2.019577,1.306843 2.966599,1.311624 1.20202,0.0056 1.694168,-0.177708 2.724843,-1.017504 1.1251,-0.91673 1.386293,-1.627802 1.293523,-3.521428 -0.05967,-1.218598 -0.13932,-1.483414 -0.63683,-2.117907 -0.763237,-0.973386 -1.51158,-1.393628 -2.708432,-1.520961 -1.542886,-0.164142 -2.731297,0.208544 -3.39995,1.066225 -0.859462,1.102425 -1.528706,1.341729 -3.752416,1.341729 -1.901591,0 -1.919714,-0.0043 -2.45614,-0.585919 -2.225786,-2.413186 -5.471679,-2.102249 -6.919654,0.662865 -0.550339,1.050954 -0.561209,2.760592 -0.0242,3.811173 1.022232,1.999954 3.27033,2.881768 5.128678,2.011732 z m -2.77313,-0.84722 c -1.592894,-0.955694 -1.931967,-1.503449 -1.931967,-3.120988 0,-1.270843 0.290748,-1.786468 1.528513,-2.710723 0.545216,-0.407117 0.943406,-0.548578 1.544179,-0.548578 1.042268,0 1.752441,0.371045 3.363382,1.757262 0.185726,0.159813 1.033297,0.233411 2.667951,0.231676 2.523025,-0.0029 3.255052,-0.197347 3.81056,-1.01338 0.523429,-0.768899 1.637512,-1.354882 2.57594,-1.354882 1.026204,0 1.682367,0.295912 2.380652,1.073636 0.709301,0.789984 0.896466,1.262626 0.896466,2.263774 0,1.093994 -0.685239,2.407319 -1.475953,2.828809 -1.436807,0.765885 -3.217652,0.440428 -4.4668,-0.816327 L 54.141899,85.402637 H 51.59929 49.056682 l -0.83417,0.792593 c -1.511412,1.436083 -3.20815,1.960129 -4.274688,1.320235 z m -5.100346,-4.403552 c 2.062136,-1.059264 3.009225,-3.129039 2.640256,-5.770023 -0.157165,-1.124955 -0.131086,-1.32884 0.298022,-2.330168 0.258634,-0.603538 0.567582,-1.158303 0.686547,-1.232818 0.118959,-0.07451 0.554799,-0.653732 0.968539,-1.287155 0.715956,-1.096109 0.804044,-1.163406 1.825596,-1.394754 3.002994,-0.680075 4.661271,-2.57117 4.661271,-5.315708 0,-2.047538 -1.243146,-3.781386 -3.272838,-4.564738 -1.238543,-0.478012 -1.796269,-0.472277 -3.114139,0.03197 -1.403782,0.537138 -2.450643,1.623591 -2.988321,3.101333 -0.389518,1.07054 -0.40054,1.228984 -0.186066,2.6734 l 0.227993,1.535404 -0.565863,1.062834 c -0.444366,0.834648 -1.417845,2.257408 -2.539071,3.710928 -0.029,0.03756 -0.613089,0.189418 -1.297994,0.33741 -1.578061,0.340981 -2.582449,0.947358 -3.302389,1.993747 -1.159085,1.684665 -1.332349,3.507703 -0.486982,5.123932 0.278293,0.532062 0.583347,1.116188 0.677895,1.298058 0.09454,0.181872 0.674134,0.592078 1.287974,0.911567 1.510348,0.786108 3.093645,0.826675 4.47957,0.114766 z m -3.731486,-0.584778 c -1.834587,-0.513246 -2.806144,-3.260567 -1.986592,-5.617544 0.382968,-1.101371 1.483581,-1.914206 3.291749,-2.431042 1.657839,-0.473868 2.157526,-0.910798 3.514328,-3.072953 1.582842,-2.522382 1.59771,-2.572088 1.328117,-4.440014 l -0.225112,-1.559713 0.626689,-1.28666 c 0.562699,-1.155292 0.730003,-1.338789 1.638667,-1.797202 1.231845,-0.62146 2.073457,-0.656191 3.351124,-0.138294 1.2092,0.490141 1.579331,0.824025 1.980838,1.786823 0.567108,1.359928 0.59909,2.037617 0.161073,3.413015 -0.475138,1.491957 -0.968866,1.901841 -3.191974,2.649887 -1.843851,0.620434 -2.461905,1.170174 -3.872133,3.44412 l -1.190988,1.920442 0.04708,2.252183 c 0.04618,2.210677 0.03686,2.269307 -0.5071,3.181697 -0.860353,1.443127 -1.294666,1.690022 -3.075539,1.748351 -0.837216,0.02746 -1.687812,0.0035 -1.890207,-0.05312 z m 33.198871,-0.342271 c 2.27894,-1.190404 3.24574,-4.192927 2.131719,-6.62032 -0.251207,-0.547353 -0.644494,-1.17654 -0.873983,-1.398187 -0.521905,-0.504069 -2.31033,-1.372094 -2.832076,-1.374567 -0.71526,-0.0035 -1.991683,-0.579481 -2.459353,-1.10998 -0.253947,-0.28807 -0.687207,-0.876785 -0.962802,-1.308245 -0.275588,-0.431467 -0.751679,-1.048747 -1.057977,-1.371735 -0.53564,-0.564828 -0.556907,-0.651832 -0.556907,-2.278361 0,-2.748273 -0.234335,-3.531531 -1.400874,-4.682336 -2.056746,-2.029015 -4.45929,-2.085517 -6.645801,-0.156293 -0.856146,0.755408 -1.521141,2.350125 -1.521141,3.647832 0,1.425039 0.677082,3.037748 1.550898,3.694003 1.094501,0.821996 1.647596,1.085264 2.720705,1.295047 1.370172,0.267849 2.459318,0.860175 2.704752,1.470961 0.114028,0.283762 0.478491,0.82105 0.809914,1.193958 1.42495,1.603341 1.413462,1.57362 1.414581,3.659245 0.0014,2.572029 0.169892,3.096594 1.403164,4.367849 1.15738,1.193042 1.650315,1.397242 3.431834,1.421657 0.984249,0.01348 1.43735,-0.08176 2.143347,-0.450528 z m -3.575432,-0.576199 c -0.940715,-0.343217 -2.209273,-1.718014 -2.466529,-2.673112 -0.109655,-0.407095 -0.199836,-1.517742 -0.2004,-2.468103 -6.95e-4,-1.553433 -0.05007,-1.802429 -0.486425,-2.465644 -0.797681,-1.212309 -1.983824,-2.729184 -2.134126,-2.729184 -0.07723,0 -0.140419,-0.129275 -0.140419,-0.287289 0,-0.415575 -1.031822,-0.999522 -2.204655,-1.247686 -1.70711,-0.36121 -2.217158,-0.568255 -2.881876,-1.169865 -1.352515,-1.224109 -1.70099,-2.935262 -0.959568,-4.711841 0.305693,-0.732483 0.618013,-1.096991 1.396041,-1.629325 1.766207,-1.20846 3.635747,-1.03378 5.150169,0.481188 0.896974,0.8973 1.155858,1.801769 1.155858,4.038259 0,2.038241 0.03596,2.11713 2.183111,4.788988 1.329003,1.653784 1.832765,1.956435 3.567616,2.143352 1.093241,0.117784 1.199529,0.176285 2.206831,1.214617 l 1.058269,1.09087 v 1.726392 1.726393 l -0.750984,0.839817 c -1.335276,1.493226 -2.833717,1.937526 -4.492913,1.332173 z m -34.591345,-5.88375 c 0.588117,-0.282915 0.861124,-0.628742 1.333976,-1.58934 0.731309,-1.485677 0.755691,-2.273443 0.11733,-3.790726 -0.392863,-0.933767 -0.619723,-1.217155 -1.241978,-1.551469 -1.443553,-0.775552 -2.097171,-1.453914 -2.506718,-2.6016 -0.212603,-0.595789 -0.507148,-1.352202 -0.654549,-1.680917 -0.366543,-0.817408 -0.337543,-1.273012 0.140523,-2.207445 0.557824,-1.090332 0.586121,-3.215038 0.05368,-4.031162 -0.201164,-0.308358 -0.449951,-0.727094 -0.552852,-0.930527 -0.308968,-0.610828 -2.042546,-1.432509 -3.012323,-1.42777 -1.637039,0.008 -3.233758,1.19547 -3.789093,2.817935 -0.364901,1.066117 -0.359122,1.900881 0.02017,2.911413 0.396181,1.055521 0.815331,1.517204 2.305004,2.538862 1.09708,0.752405 1.26266,0.949185 1.542316,1.832952 0.172318,0.544528 0.377391,1.0754 0.455729,1.179714 0.373232,0.497002 0.37639,1.922306 0.0069,3.129462 -0.500501,1.635346 -0.656282,2.757864 0.05807,3.752183 0.880263,1.225284 0.736777,1.163993 1.907252,1.915682 0.867411,0.557065 0.984707,0.331812 2.422544,0.403317 z M 26.836148,75.320279 C 26.099901,74.920891 25.298637,74.139791 24.979753,73.510597 24.594184,72.749819 24.662551,71.7411 25.208052,70.142154 l 0.487872,-1.430007 -0.476182,-1.232818 c -0.261895,-0.678047 -0.531753,-1.551254 -0.599688,-1.94045 -0.13366,-0.765809 -0.696776,-1.360158 -2.561754,-2.703836 -1.118201,-0.805638 -1.570036,-1.573634 -1.570036,-2.668611 0,-1.239463 0.539083,-2.090298 1.839963,-2.904057 1.185524,-0.741595 2.942921,-0.395016 4.01781,0.79234 0.652547,0.720821 0.741457,2.357644 0.222034,4.087629 l -0.406542,1.35403 0.394782,1.375067 c 0.89662,3.123032 1.044681,3.352701 2.717708,4.215787 1.390868,0.717523 1.886042,1.547268 1.886042,3.160336 0,1.239312 -0.01718,1.284409 -0.807111,2.122262 -1.131692,1.200294 -2.416264,1.547462 -3.516802,0.950453 z m 48.781939,-0.32609 c 0.841715,-0.308516 1.9144,-1.305744 2.38568,-2.21784 0.531579,-1.028797 0.460569,-2.71995 -0.159398,-3.796368 -0.636344,-1.104834 -0.629188,-1.653182 0.05014,-3.839143 0.587227,-1.889668 0.795352,-2.180885 2.028422,-2.838208 1.02258,-0.545108 1.836096,-2.064484 1.836158,-3.429317 5.6e-5,-1.121141 -0.754794,-2.972795 -1.340804,-3.289038 -2.257291,-1.218151 -2.905277,-1.271943 -4.576886,-0.379954 -0.98671,0.526527 -1.236122,0.767107 -1.622178,1.564737 -0.587818,1.214503 -0.628749,2.942781 -0.0895,3.779544 0.534041,0.828671 0.476801,3.192774 -0.117262,4.843447 -0.371187,1.031399 -0.549215,1.283248 -1.094063,1.547698 -0.838071,0.406772 -2.182526,1.789002 -2.502086,2.572382 -0.348064,0.853286 -0.303307,2.28262 0.100155,3.198335 0.346611,0.78667 1.603277,1.999238 2.420715,2.335767 0.657659,0.270744 1.864198,0.247325 2.680934,-0.05204 z m -2.963059,-1.120662 c -0.955619,-0.557911 -1.560746,-1.659103 -1.564695,-2.847406 -0.0048,-1.454093 0.659689,-2.383981 2.534645,-3.546792 0.58964,-0.365683 0.793092,-0.626033 0.88931,-1.137987 0.06864,-0.365103 0.319198,-1.254884 0.556851,-1.977281 0.237646,-0.722398 0.432085,-1.573039 0.432085,-1.890306 0,-0.672069 -0.528686,-2.201675 -0.760984,-2.201675 -0.08745,0 -0.159001,-0.620677 -0.159001,-1.379276 0,-1.262008 0.0484,-1.439792 0.56932,-2.091223 1.037692,-1.297685 2.709259,-1.63235 4.217395,-0.844375 0.975201,0.509524 1.429275,1.251707 1.571537,2.568647 0.122491,1.133916 -0.236248,2.104986 -0.999944,2.706782 -0.265317,0.209075 -0.898288,0.705259 -1.406591,1.102632 -0.852905,0.666772 -0.965799,0.852807 -1.463476,2.41171 -0.699016,2.189552 -0.708786,3.437151 -0.03686,4.704665 0.537997,1.014855 0.603228,1.61273 0.283536,2.598754 -0.635161,1.958994 -2.908204,2.847678 -4.663131,1.823131 z M 42.823476,59.125656 c 1.829824,-0.705717 3.240309,-2.762287 3.240309,-4.724572 0,-1.58597 -1.289058,-3.584033 -2.846534,-4.412165 -0.401821,-0.213647 -1.229801,-0.428671 -1.839971,-0.477818 -0.987514,-0.07955 -1.271085,-0.01283 -2.581363,0.607467 -1.662463,0.787014 -2.093157,0.800361 -4.219258,0.130744 -2.170503,-0.683609 -2.904999,-1.149456 -3.351542,-2.125689 -0.217214,-0.474879 -0.672603,-1.083979 -1.011982,-1.353562 -0.339372,-0.269583 -0.811096,-0.666133 -1.048276,-0.881229 -0.237173,-0.215089 -0.897905,-0.490944 -1.468295,-0.613001 -1.369811,-0.293131 -2.501913,-0.02165 -3.805318,0.912591 -0.834247,0.597947 -1.069027,0.902934 -1.462399,1.899704 -0.578748,1.46648 -0.600536,2.69094 -0.07315,4.111542 0.32515,0.875838 0.588562,1.214862 1.481488,1.906765 0.597317,0.462844 1.375374,0.89748 1.72903,0.965874 1.167797,0.225826 2.537226,-0.01197 3.718431,-0.645632 0.618395,-0.331754 1.353503,-0.603194 1.633576,-0.603194 0.280067,0 1.43445,0.30035 2.565307,0.667438 2.203487,0.715279 2.327814,0.810863 3.807396,2.927183 0.610704,0.873515 1.33506,1.406251 2.490732,1.83184 0.966502,0.355934 1.895058,0.317991 3.041819,-0.124286 z m -3.326517,-0.915794 c -0.826342,-0.338608 -1.713016,-1.088376 -1.713016,-1.448517 0,-0.382536 -1.301075,-1.960033 -1.934123,-2.345049 -0.334093,-0.203196 -1.215469,-0.513209 -1.958615,-0.688929 -0.74314,-0.175712 -1.591219,-0.396672 -1.884616,-0.491016 -0.888733,-0.285769 -1.548916,-0.198063 -2.991731,0.397468 -2.2586,0.932247 -3.710441,0.754118 -5.186561,-0.636327 -1.749142,-1.647626 -1.438706,-4.740041 0.616163,-6.137905 2.043214,-1.389936 4.531677,-0.820111 5.808669,1.330116 0.963407,1.622206 1.566621,2.101473 3.398677,2.700309 0.906501,0.296299 2.204134,0.574914 2.883635,0.619136 1.089668,0.0709 1.379797,0.01076 2.458618,-0.50961 1.508011,-0.727423 2.55892,-0.765882 3.849786,-0.140888 1.08185,0.523804 1.41287,0.872448 1.917802,2.019919 0.55308,1.256882 0.491383,2.216956 -0.233377,3.631595 -0.555877,1.084998 -0.711915,1.242237 -1.609973,1.622357 -1.166567,0.493782 -2.340308,0.520313 -3.421338,0.07734 z m 22.905951,0.05684 c 0.984374,-0.440062 1.170948,-0.620506 1.898093,-1.835769 1.017879,-1.70116 1.796416,-2.551399 2.479145,-2.707485 0.294371,-0.06731 1.214703,-0.368091 2.045174,-0.668426 1.640294,-0.593195 1.625203,-0.59427 3.825957,0.272313 0.852919,0.335848 2.287723,0.386874 3.236818,0.115104 0.363483,-0.104078 1.13318,-0.637029 1.710441,-1.184346 1.005536,-0.953364 1.061441,-1.056403 1.332634,-2.456195 0.25944,-1.339134 0.257367,-1.552853 -0.02482,-2.560476 -0.335749,-1.198804 -1.005271,-2.246683 -1.62722,-2.546811 -0.21775,-0.105075 -0.685705,-0.35569 -1.039896,-0.556915 -0.835505,-0.474679 -2.967176,-0.505711 -3.77193,-0.05491 -0.3036,0.170056 -0.770978,0.427352 -1.038623,0.57176 -0.643862,0.347396 -0.877343,0.653216 -1.553027,2.03422 -0.652707,1.334036 -1.335289,1.892693 -2.824691,2.311874 -0.562949,0.158436 -1.295442,0.41222 -1.62777,0.563968 -0.838349,0.382809 -1.616948,0.345117 -2.799704,-0.135533 -1.352648,-0.549682 -3.454214,-0.573955 -4.540905,-0.0524 -1.028032,0.493375 -2.204752,2.004586 -2.576461,3.308845 -0.475821,1.669554 -0.106059,2.916129 1.477781,4.982076 0.382078,0.498385 2.09167,1.057565 3.281499,1.073335 0.740852,0.0098 1.364212,-0.128465 2.137526,-0.474176 z m -3.981578,-0.667824 c -1.055773,-0.552406 -2.023901,-2.037109 -2.172673,-3.33197 -0.262722,-2.286576 1.832348,-4.616071 4.15154,-4.616071 0.205545,0 0.999026,0.256049 1.763278,0.568994 0.764253,0.312945 1.670934,0.568993 2.014847,0.568993 0.521558,0 2.294316,-0.606878 3.873044,-1.325878 0.202396,-0.09218 0.574987,-0.226085 0.827981,-0.297562 0.665434,-0.188013 0.929784,-0.456693 1.292515,-1.313677 0.460124,-1.087085 1.385388,-2.327631 2.043999,-2.740496 1.263383,-0.791975 3.659209,-0.62541 4.634793,0.322227 1.078443,1.047544 1.49452,1.937747 1.483629,3.174243 -0.0095,1.081227 -0.586461,2.750137 -0.950715,2.750137 -0.07488,0 -0.36061,0.214551 -0.63496,0.476787 -1.099459,1.050876 -2.753369,1.192158 -4.470994,0.381919 -0.870714,-0.410729 -1.288947,-0.500413 -2.018289,-0.432794 -0.977114,0.09059 -4.63512,1.493441 -5.264844,2.019066 -0.206164,0.172085 -0.682387,0.907608 -1.058269,1.634493 -0.916522,1.772393 -1.838649,2.432046 -3.519938,2.518024 -0.950082,0.0486 -1.361263,-0.02488 -1.994944,-0.356435 z M 52.04342,51.717422 c 0.98991,-0.256938 2.177791,-1.273979 2.714426,-2.324046 0.32545,-0.636821 0.399393,-1.092066 0.390256,-2.402619 -0.01294,-1.854522 -0.09004,-2.046298 -1.458567,-3.627287 -0.554591,-0.640678 -1.043018,-1.344459 -1.085412,-1.563957 -0.04242,-0.219497 -0.12423,-1.40433 -0.181873,-2.632962 -0.11279,-2.40411 0.07188,-3.158765 0.980167,-4.0055 1.153054,-1.074912 1.742249,-3.207203 1.325449,-4.796779 -0.223876,-0.853817 -1.397564,-2.520274 -2.117491,-3.006523 -0.735024,-0.496435 -2.723876,-0.749624 -3.849254,-0.490019 -1.101454,0.254085 -2.193733,0.944526 -2.549163,1.611346 -0.132094,0.247813 -0.397558,0.738018 -0.589924,1.089343 -0.206484,0.377131 -0.381598,1.14436 -0.427516,1.873109 -0.0637,1.011042 -0.0048,1.371571 0.324156,1.992987 0.221059,0.417267 0.522135,0.991565 0.669056,1.27623 0.146914,0.284665 0.546097,0.754613 0.887068,1.044332 0.879831,0.747574 1.012942,1.278109 1.012942,4.037307 v 2.445049 l -0.722695,0.806784 c -1.062216,1.185815 -1.552348,2.317179 -1.635805,3.775925 -0.202806,3.545015 2.737615,5.825612 6.31418,4.89728 z m -3.516996,-1.071657 c -1.47431,-1.01383 -2.09465,-2.05943 -2.09465,-3.530585 0,-1.249233 0.200892,-1.853783 0.845134,-2.543321 0.265219,-0.283869 0.721762,-0.895572 1.014521,-1.359334 0.520688,-0.824806 0.532302,-0.899329 0.532302,-3.415216 0,-1.414602 -0.07867,-2.854724 -0.174802,-3.200278 -0.09614,-0.345547 -0.663221,-1.166475 -1.26017,-1.824278 -0.804369,-0.886361 -1.115861,-1.386273 -1.203143,-1.930944 -0.397926,-2.48302 0.224578,-3.925142 2.126007,-4.925252 2.598729,-1.366868 5.6469,0.696914 5.659968,3.832118 0.0035,0.860583 -0.104446,1.133728 -0.96194,2.432145 -1.718056,2.601479 -1.661442,2.393329 -1.465848,5.389222 l 0.171852,2.632288 1.232882,1.536114 c 2.030091,2.5294 2.120926,4.092869 0.354984,6.110106 -0.877564,1.002447 -1.588951,1.319836 -2.95591,1.31879 -0.852849,-5.67e-4 -1.214112,-0.104114 -1.821187,-0.521575 z M 32.050379,42.969534 c 1.089988,-0.635868 1.472552,-1.304445 1.866945,-3.262715 0.120781,-0.599753 0.357099,-1.214094 0.52514,-1.365205 0.168041,-0.151111 0.853064,-0.740921 1.522274,-1.310682 l 1.216735,-1.035937 h 1.304162 c 2.274651,0 3.022739,-0.263648 4.056523,-1.429613 1.183632,-1.334984 1.479492,-2.437272 1.056621,-3.936698 -0.220566,-0.782103 -0.501655,-1.229686 -1.187631,-1.891102 -1.720348,-1.658759 -3.631753,-1.701554 -5.414657,-0.121232 -0.980278,0.868899 -1.353002,1.617547 -1.530849,3.074802 -0.118771,0.973257 -0.635544,1.838199 -1.098255,1.838199 -0.123452,0 -0.496322,0.261784 -0.828594,0.581731 -1.314698,1.265945 -1.422001,1.314919 -2.881215,1.314919 -1.533136,0 -3.172074,0.413847 -3.59418,0.907572 -0.152944,0.178882 -0.505418,0.778069 -0.783279,1.331521 -0.434756,0.865946 -0.491628,1.16069 -0.407809,2.113559 0.147534,1.677132 0.80812,2.697034 2.218634,3.425447 0.9876,0.510011 1.258153,0.570893 2.057142,0.462865 0.505987,-0.06839 1.362021,-0.382249 1.902293,-0.697431 z m -3.406006,-0.378865 c -0.321055,-0.106437 -0.856646,-0.483776 -1.190205,-0.838519 -0.543199,-0.577711 -0.613875,-0.780054 -0.677429,-1.939439 -0.08371,-1.527125 0.185711,-2.208405 1.183639,-2.993011 0.597283,-0.469603 0.862995,-0.534614 2.622144,-0.641552 1.793411,-0.109017 2.653479,-0.32392 2.815463,-0.703502 0.03414,-0.07996 0.618458,-0.598355 1.298537,-1.152002 1.181824,-0.962117 1.610356,-1.666801 1.614417,-2.654775 5.56e-4,-0.137139 0.174251,-0.664405 0.385965,-1.171715 1.211137,-2.902086 5.266205,-2.641478 6.057927,0.389332 0.26385,1.010045 0.06941,1.928334 -0.590147,2.786746 -0.838392,1.091206 -1.471561,1.356402 -3.276761,1.372409 -1.697131,0.01505 -2.128222,0.193662 -3.724413,1.543125 -1.808662,1.529096 -1.803926,1.522487 -1.97073,2.748395 -0.259816,1.909461 -0.95591,2.897764 -2.30871,3.277856 -0.872725,0.245203 -1.44774,0.239209 -2.239697,-0.02337 z m 43.822912,-0.317748 c 0.860395,-0.41151 1.826979,-1.405828 2.104675,-2.165072 0.254725,-0.696462 0.226282,-2.720072 -0.04875,-3.465653 -0.239238,-0.648621 -1.176894,-1.559893 -2.114355,-2.054865 -0.478936,-0.252873 -0.994048,-0.30959 -2.391959,-0.263382 -1.642652,0.05427 -1.81385,0.02559 -2.195559,-0.367848 -0.227702,-0.234715 -0.509847,-0.42675 -0.626998,-0.42675 -0.117143,0 -0.644299,-0.342995 -1.171442,-0.762211 -0.855589,-0.680413 -1.003059,-0.907917 -1.374122,-2.119861 -0.228626,-0.746713 -0.488957,-1.44924 -0.578527,-1.561183 -0.08956,-0.111934 -0.341736,-0.448958 -0.560369,-0.748928 -0.572129,-0.784949 -1.690002,-1.247313 -3.027615,-1.252244 -0.971432,-0.0035 -1.254183,0.08195 -2.023957,0.612247 -1.653236,1.138905 -2.27595,3.328772 -1.496655,5.263186 0.33844,0.840111 0.61699,1.183156 1.431042,1.7624 l 1.0108,0.719251 1.747966,-0.08477 1.747966,-0.08477 1.287979,0.821574 c 1.696374,1.082088 2.382885,1.861123 2.652631,3.01015 0.212326,0.904419 0.978908,2.256784 1.562018,2.755628 0.908344,0.777079 2.884323,0.97788 4.065195,0.413102 z M 69.914287,41.602143 C 69.04456,41.275034 67.981528,40.24896 67.841581,39.6015 c -0.378649,-1.751804 -0.51274,-2.035732 -1.367383,-2.895269 -0.492677,-0.495495 -0.991864,-0.900905 -1.109299,-0.900905 -0.117443,0 -0.6169,-0.298716 -1.109912,-0.663825 -0.881256,-0.652621 -0.927391,-0.663825 -2.73316,-0.663825 -1.722235,0 -1.893183,-0.03577 -2.741394,-0.573768 -1.905415,-1.208524 -2.007399,-3.576584 -0.221887,-5.152004 1.314733,-1.16003 2.901041,-1.102008 4.251358,0.155498 0.560461,0.521947 0.756152,0.88077 0.917649,1.682666 0.293767,1.45868 0.805359,2.120133 2.673159,3.456198 l 1.650656,1.18074 1.772856,-0.03326 c 1.556961,-0.02918 1.874837,0.02251 2.610258,0.424685 0.844198,0.461647 1.430235,1.278339 1.670295,2.327703 0.161163,0.704484 -0.173536,1.922083 -0.67791,2.466145 -1.146539,1.236754 -2.325784,1.636208 -3.51258,1.189837 z"
       id="path863-7"
       sodipodi:nodetypes="cssscsssssscscccssssscsssssscccssssssssssssscsssssssssssssscsssssssccscssssscsssssssssssssssssccssssssssssscccssssssssssscsssssssscsssscssssssscssssscssssssssssssssccscssssssssssssssssssssssssssssssssssssssssssssssscssssscssssssssssssssssssssccssssssssssssssssssssssscsssssssscssscsssssssssscscsscsscssssscssssssssssssscscssssssssssssssccsssscsssssssssscccssssscssssssssssccssscc" />
  </g>
</svg>
